<?xml version="1.0" encoding="utf-8"?>
<svg xmlns="http://www.w3.org/2000/svg" viewBox="0 0 90 80.1087" width="90px" height="80.1087px">
    <g
        transform="matrix(0.9999999999999999, 0, 0, 0.9999999999999999, -5.000000953674316, -9.945650100708036)"
        id="object-0">
        <g>
            <path
                d="M14.00448,90.05435l3.4542-23.12704c-8.04179-6.28423-12.45868-14.52373-12.45868-23.28625C5,25.06137,25.18666,9.94565,49.99885,9.94565c24.81391,0,45.00115,15.11514,45.00115,33.69425,0,18.57739-20.18666,33.69138-44.99885,33.69138h-.06552c-3.47661,0-6.97507-.30806-10.40743-.91671l-25.52372,13.63978ZM49.99885,12.89638C26.81318,12.89638,7.95073,26.68846,7.95073,43.64105c0,8.06191,4.25424,15.68413,11.97935,21.46144l.70578,.52819-2.84612,19.05557,21.25798-11.36093,.50865,.09483c3.41799,.63739,6.9107,.96039,10.38042,.96039h.06265c23.18739,0,42.04985-13.79036,42.04985-30.74065,0-16.95202-18.86361-30.74352-42.05042-30.74352Z"
                style="fill: rgb(244, 244, 244);" />
        </g>
        <polygon
            points="65.78816 29.93863 63.70185 27.85232 50.00144 41.55273 36.30102 27.85232 34.21471 29.93863 47.91512 43.63904 34.21471 57.33946 36.30102 59.42577 50.00144 45.72536 63.70185 59.42577 65.78816 57.33946 52.08775 43.63904 65.78816 29.93863" />
    </g>
</svg>