<?xml version="1.0" encoding="utf-8"?>
<svg xmlns="http://www.w3.org/2000/svg" viewBox="0 0 251.423 180.787" xmlns:bx="https://boxy-svg.com" width="251.423px" height="180.787px"><defs><bx:export><bx:file format="svg"/></bx:export></defs><g transform="matrix(-3.07432, 0, 0, 3.07432, 287.638, -69.7525)" style=""><path d="m56.645 22.887c-0.79688 0.29297-2.4883 1.3438-4.9414 3.0898-0.33203 0.23438-0.64062 0.43359-0.67578 0.43359s-0.34766-0.09375-0.6875-0.20703c-2.2148-0.75-5.4648-1.5273-7.6836-1.8438-2.25-0.31641-3.4492-0.39453-6.6992-0.43359-3.0352-0.03125-3.7969 0.003907-4.9531 0.23828-1.9883 0.41016-5.2344 1.5352-7.293 2.5312-0.97266 0.46875-1.5469 0.79688-2.2852 1.3086l-0.48047 0.32422-0.58203-0.39062c-1.7148-1.1445-4.875-3.0195-6.25-3.7148-0.86328-0.43359-1.2031-0.5-1.6055-0.30859-0.45312 0.21875-0.66016 0.77734-0.71875 1.9062-0.042968 0.78125 0.050782 1.5898 0.39453 3.2969 0.29297 1.4492 1.1055 4.7344 1.543 6.25 0.44141 1.5273 0.43359 1.3906 0.20703 2.0312-0.64062 1.8164-1.0469 3.7031-1.1836 5.4961-0.16016 2.1133 0.26562 5.5938 0.89453 7.3438 0.42188 1.1719 1.6445 3.2383 3.0039 5.0781 0.48047 0.65234 1.3242 1.5156 1.7969 1.8477 0.16797 0.11328 0.50391 0.37109 0.75391 0.56641 0.25 0.19141 0.58203 0.44141 0.73828 0.55078 1.5625 1.0586 4.5898 2.168 7.9805 2.918l0.51172 0.11328-0.23438 0.28125c-0.54687 0.67578-0.89453 1.3906-1.0508 2.1562-0.09375 0.47266-0.10547 2.0469-0.019531 2.8906 0.19141 1.8164 0.75 3.4336 1.6758 4.8438 0.85938 1.3086 2.875 2.9805 4.2305 3.5117 0.20703 0.078125 0.58203 0.20312 0.83984 0.26562l0.45703 0.125-0.03125 0.18359c-0.066406 0.40234-0.097656 3.6719-0.035156 3.9844 0.074219 0.37891 0.25391 0.63672 0.56641 0.76953 0.69922 0.3125 1.3398-0.33203 1-1.0039-0.12109-0.23047-0.12109-0.23437-0.082031-1.8945 0.019531-0.91797 0.050781-1.6836 0.074218-1.6992 0.019532-0.019531 0.4375 0.03125 0.92188 0.11328 0.92578 0.16016 4.0938 0.62109 5.0195 0.73047l0.53516 0.0625-0.03125 0.52734c-0.015625 0.29297-0.046875 1.2461-0.0625 2.1211-0.03125 1.4531-0.027344 1.6094 0.058594 1.7852 0.1875 0.39062 0.57812 0.53125 0.98438 0.34766 0.42578-0.1875 0.43359-0.22266 0.49609-2.5508 0.03125-1.0977 0.0625-2.0117 0.078124-2.0195 0.011719-0.011719 0.45703 0.027344 1 0.089844 4.7148 0.51172 8 0.54297 12.859 0.12891 2.0625-0.17578 5.0352-0.5 7.6875-0.83203 0.5625-0.074219 1.0508-0.12891 1.0938-0.12891 0.0625 0 0.089843 0.375 0.16016 2.293 0.09375 2.5469 0.097656 2.5625 0.45703 2.8008 0.14453 0.097657 0.23047 0.12109 0.43359 0.097657 0.29688-0.027344 0.48438-0.15234 0.625-0.41797 0.097656-0.19141 0.097656-0.23438 0.015625-2.2656-0.046875-1.1367-0.082032-2.2188-0.082032-2.4062v-0.34375l0.64063-0.09375c1.8242-0.26562 3.0977-0.55859 4.0469-0.94141 0.38672-0.15234 0.71484-0.26562 0.73047-0.25391 0.03125 0.035157 0.035157 2.8086 0 3.9023-0.027343 0.79688-0.019531 0.84375 0.09375 1.0195 0.375 0.60547 1.2188 0.41016 1.3711-0.3125 0.074219-0.34375 0.097656-4.125 0.03125-4.9023l-0.042969-0.5 0.22266-0.125c0.57422-0.3125 1.8594-1.1055 2.5664-1.5781 2.0039-1.332 2.9531-2.1875 3.4062-3.0586 0.39062-0.75 0.70312-1.9648 0.92188-3.543 0.125-0.90625 0.125-2.5508 0-3.2539-0.35547-1.9961-1.4844-3.6758-3.5586-5.2812-0.23828-0.18359-0.43359-0.35547-0.43359-0.375 0-0.046875 0.73828-0.74609 1.418-1.3398 1.3867-1.2031 2.8086-2.2539 3.4258-2.5273 0.3125-0.14062 1.0156-0.37109 1.293-0.41797l0.16797-0.035156-0.20312 0.27734c-0.40234 0.52734-0.40234 1-0.011719 1.3555 0.32812 0.29688 0.70703 0.35547 1.4805 0.23828 0.90625-0.13672 1.5312-0.35938 1.8281-0.65234 0.24609-0.24609 0.3125-0.43359 0.31641-0.82813 0-0.30078-0.027344-0.42187-0.16797-0.71484l-0.16016-0.34766 0.55078-0.38672c1.4727-1.0273 2.5586-1.4492 4.0352-1.5664 0.67188-0.050782 0.84375-0.082032 0.96484-0.16797 0.21484-0.16016 0.33203-0.42188 0.30859-0.69141-0.03125-0.26562-0.15625-0.45312-0.40234-0.58984-0.16797-0.09375-0.25-0.097657-0.90625-0.074219-0.8125 0.035156-1.2852 0.12109-1.9805 0.35547-1.1445 0.37891-2.1445 0.92578-3.2617 1.7656l-0.65625 0.5-0.70312-0.027344c-1.4258-0.046875-2.793 0.33203-3.9844 1.1094-1.0938 0.71484-2.9688 2.2461-4.0117 3.2812l-0.6875 0.67578-0.74609-0.375c-1.9961-1.0039-5.043-2.0273-7.418-2.4844-1.7656-0.33984-2.9258-0.41016-6.4688-0.41797-1.6367-0.003906-2.9883-0.019531-3.0117-0.042968-0.015625-0.015625 0.035156-0.16797 0.12109-0.33984 0.44141-0.875 1.043-2.4805 1.2852-3.4531 0.40234-1.5898 0.59766-3.125 0.63672-4.9023 0.0625-2.9688-0.29297-4.875-1.4023-7.5195l-0.26172-0.625 0.10938-1.0938c0.21875-2.1719 0.26953-4.1211 0.16016-6.043-0.21484-3.6289-0.59766-4.9883-1.5664-5.5195-0.23438-0.125-0.35547-0.15625-0.72266-0.16797-0.37109-0.015625-0.5 0-0.80078 0.10938zm0.96484 1.5938c0.34375 0.65625 0.59766 2.7148 0.65625 5.2344 0.03125 1.3867-0.015625 3.2539-0.082031 3.2539-0.015625 0-0.1875-0.26562-0.37891-0.59375-0.42578-0.71875-1.0508-1.5977-1.5664-2.207-0.84766-0.99609-2.1367-2.125-3.0977-2.7227l-0.47266-0.29297 0.24609-0.17188c1.6094-1.1406 3.0742-2.082 3.8125-2.457 0.59375-0.30859 0.75-0.3125 0.89063-0.042969zm-17.973 1.0625c2.5312 0.20312 4.7148 0.56641 7.082 1.1836 1.0117 0.26563 2.6055 0.71875 2.7031 0.77734 0.050781 0.027344-0.16797 0.20703-0.73047 0.60547-0.4375 0.3125-0.85547 0.65234-0.91797 0.74609-0.28516 0.42188-0.046876 1.0312 0.44141 1.1289 0.33203 0.066406 0.5-0.019531 1.7344-0.89453 0.67188-0.48047 1.2461-0.87891 1.2812-0.89062 0.09375-0.035157 1.0352 0.47266 1.5352 0.83203 1.3281 0.95312 2.4531 2.1445 3.4023 3.6055 0.49609 0.76562 0.76172 1.2383 1.2852 2.293l0.44141 0.88672-0.027343 0.47266c-0.015626 0.375-0.003907 0.50391 0.0625 0.64063 0.09375 0.17187 0.35937 0.37109 0.51172 0.37109 0.097656 0 0.30859 0.51562 0.58984 1.4414 0.21484 0.6875 0.35547 1.3555 0.48047 2.2539 0.12891 0.94922 0.12891 3.5898 0 4.6094-0.34375 2.5977-0.83984 4.207-2.0039 6.5039-0.82422 1.6211-1.5352 2.6562-2.4805 3.6055-0.70703 0.71484-1.3477 1.1406-2.6602 1.793-2.7773 1.375-5.9375 2.4023-8.8555 2.8867-2.1289 0.35547-3.1094 0.42188-5.8594 0.42188-2.8086-0.003906-3.8477-0.082031-6.3281-0.5-4.0586-0.67188-7.3164-1.6094-9.5625-2.7344-0.71875-0.35938-1.0195-0.55859-1.7812-1.1836-0.32422-0.26563-0.71875-0.57422-0.87891-0.68359-0.50391-0.33203-1.1406-1.1055-2.1133-2.5625-1.3906-2.082-1.9688-3.2773-2.25-4.6289-0.23047-1.0938-0.44922-2.8086-0.5-3.9492-0.074219-1.5469 0.21484-3.6758 0.71484-5.3711l0.10938-0.35938 0.31641 0.34375c0.22266 0.23438 0.37891 0.35547 0.51562 0.39062 0.5625 0.15234 1.0742-0.33984 0.92188-0.88672-0.027344-0.10938-0.20703-0.39062-0.40234-0.63672-0.23437-0.28516-0.40234-0.5625-0.5-0.8125-0.17578-0.45313-0.1875-0.41016 0.32422-1.4531 0.39062-0.79687 1.0469-1.8086 1.707-2.6367 0.5625-0.69922 1.7305-1.8789 2.4648-2.4844l0.54297-0.44922 0.43359 0.31641c0.62891 0.46875 0.79688 0.55859 1.0508 0.55859 0.44141 0 0.73828-0.29297 0.73828-0.73047 0-0.31641-0.12891-0.51172-0.54297-0.80859-0.1875-0.13672-0.34375-0.26563-0.34375-0.28516 0-0.027343 0.23047-0.1875 0.51172-0.36328 2.207-1.3906 7.2969-3.2148 9.6133-3.4375 0.76953-0.074219 6.043-0.019531 7.2188 0.074219zm-24.062 1.2188c1.293 0.75 2.4414 1.4531 3.4219 2.0898l0.6875 0.44922-0.57422 0.49609c-1.418 1.2148-2.9688 3.0469-3.7812 4.4688-0.12891 0.23438-0.23047 0.36328-0.24609 0.31641-0.058593-0.15234-0.35547-1.2812-0.68359-2.6055-0.83203-3.3281-1.207-5.457-1.0977-6.2148l0.035157-0.24609 0.55859 0.29688c0.30859 0.16797 1.0625 0.59375 1.6758 0.94922zm49.027 27.25c2.8008 0.12109 4.4062 0.40625 7.0938 1.2852 1.4375 0.47266 2.582 0.92578 3.5312 1.3945l0.69922 0.34766-0.25 0.56641c-0.14062 0.3125-0.32812 0.78516-0.42188 1.0508-0.15625 0.4375-0.17188 0.53125-0.17188 1.0898 0 0.65625 0.035157 0.76172 0.34766 0.99609 0.16797 0.125 0.53125 0.13672 0.76172 0.015624 0.26953-0.14062 0.375-0.35937 0.375-0.80859 0-0.28125 0.042969-0.49609 0.15234-0.83203 0.20312-0.60938 0.47266-1.2031 0.54688-1.2031 0.09375 0.003907 0.96484 0.73047 1.4375 1.2031 1.0586 1.0586 1.6406 2.0898 1.8594 3.293 0.10547 0.58203 0.11328 1.957 0.019531 2.7188-0.16797 1.3398-0.46875 2.5742-0.77734 3.1758-0.34766 0.69141-1.9336 1.9492-4.2305 3.3438-0.90234 0.54687-0.81641 0.51953-0.88672 0.28125-0.058594-0.22266-0.33203-0.50391-0.55078-0.55859-0.3125-0.078125-0.65625 0.074218-0.83203 0.36328-0.074219 0.125-0.082032 0.23438-0.058594 0.67578l0.03125 0.53125-0.55859 0.24609c-0.83984 0.36328-1.0664 0.44922-1.75 0.61328-0.5625 0.13672-2.6758 0.51562-2.8789 0.51562-0.0625 0-0.074219-0.050781-0.042969-0.3125 0.03125-0.26172 0.015625-0.34766-0.078125-0.54688-0.26953-0.5625-1-0.57812-1.3242-0.03125-0.0625 0.10938-0.10547 0.31641-0.12891 0.64453l-0.03125 0.48047-1.3281 0.16797c-1.9961 0.25391-5.3633 0.62109-7.0039 0.76562-3.0664 0.27734-3.8438 0.3125-6.3789 0.3125-2.6055 0.003906-3.2773-0.03125-6.2969-0.33203-0.84375-0.089844-1.5508-0.15625-1.582-0.15625-0.066406 0-0.003906-0.51172 0.10547-0.84375 0.10547-0.33203 0.035156-0.59375-0.21875-0.81641-0.15625-0.13672-0.23047-0.16016-0.45703-0.16016-0.54688 0-0.83203 0.35547-0.93359 1.1406-0.03125 0.26953-0.082031 0.47266-0.11328 0.47266-0.089844 0-2.2969-0.30078-3.4688-0.47266-1.3164-0.19141-2.8125-0.44922-2.8477-0.48438-0.0625-0.058593 0.097656-0.55078 0.26953-0.83984 0.16797-0.27734 0.1875-0.34375 0.16797-0.58984-0.035157-0.47266-0.41797-0.75391-0.90625-0.66016-0.34766 0.0625-0.82813 0.71875-0.95313 1.3008-0.027343 0.14453-0.0625 0.3125-0.078124 0.375l-0.027344 0.10938-0.375-0.10547c-0.67578-0.19141-1.4258-0.62891-2.3633-1.3867-1.793-1.4414-2.7656-3.3008-3.043-5.8164-0.066406-0.65625-0.074219-2.1523 0-2.5273 0.089844-0.47266 0.41797-1.0664 0.96875-1.7344 0.27734-0.33203 0.53516-0.60938 0.57812-0.60938s0.48828 0.066406 0.99609 0.15625c2.1992 0.36328 3.4102 0.46875 5.875 0.50391 3.6094 0.050782 6.2812-0.23047 9.2539-0.98047 2.9102-0.73047 6.6289-2.25 8.418-3.4375 1.2031-0.79688 2.25-1.9258 3.1875-3.4336l0.30859-0.49609 2.5664-0.011718c1.4062-0.011719 3.1211 0.011718 3.8008 0.035156z"/><path d="m30.676 37.191c-0.48438 0.082032-0.95312 0.44922-1.1992 0.93359-0.33984 0.67578-0.67578 2.0195-0.67578 2.707 0 0.72266 0.45703 1.168 1.1992 1.1602 0.51953-0.003907 0.76172-0.14063 1.4023-0.79297 0.84766-0.87109 1.043-1.2305 1.1523-2.1367 0.089843-0.70703 0.015624-0.98047-0.34766-1.3711-0.16797-0.17188-0.36328-0.32422-0.48047-0.35938-0.3125-0.10547-0.85547-0.18359-1.0469-0.14453z"/><path d="m42.777 38.02c-0.3125 0.097657-0.5 0.34375-0.69922 0.91016-0.16016 0.47266-0.17578 0.56641-0.16797 1.0664 0.003906 0.45703 0.03125 0.62891 0.17188 1.0664 0.09375 0.28516 0.22266 0.625 0.28516 0.75391 0.47266 0.9375 1.6289 1.1562 2.207 0.42188 0.33203-0.41797 0.4375-0.73828 0.46484-1.4375 0.027344-0.73438-0.03125-1.0156-0.36328-1.6562-0.25391-0.48828-0.60938-0.87891-0.93359-1.0195-0.28516-0.125-0.73828-0.17578-0.96875-0.10938z"/><path d="m36.109 41.457c-0.72266 0.14453-1.4531 0.97266-1.6367 1.8594-0.20312 0.98828 0.41016 2.1836 1.2969 2.5156 0.25391 0.097657 0.37109 0.10938 0.84375 0.089844 0.87891-0.035156 1.5664-0.35547 2.0039-0.92188 0.32422-0.42188 0.39062-0.60547 0.39062-1.0625 0-1.2031-0.94141-2.3125-2.1094-2.4805-0.41797-0.058593-0.48828-0.058593-0.79297 0zm0.64062 1.5117c0.15625 0 0.55078 0.35547 0.67188 0.60547 0.046875 0.097656 0.078125 0.25391 0.066406 0.34766-0.015625 0.14453-0.058593 0.18359-0.34766 0.33984-0.28125 0.14453-0.37891 0.16797-0.625 0.15625-0.26172-0.015625-0.29688-0.03125-0.40234-0.1875-0.0625-0.09375-0.12891-0.26562-0.15234-0.37891-0.0625-0.37891 0.33984-1 0.58984-0.90625 0.042969 0.015626 0.12891 0.027344 0.19922 0.027344z"/><path d="m49.281 44.047c-0.097656 0.046875-0.84766 0.76953-1.668 1.6133-2.0664 2.1211-2.9492 2.9023-4.1914 3.7188-0.73438 0.48047-1.2227 0.73828-1.9883 1.0508-1.2695 0.51953-2.4727 0.87891-3.543 1.0625-0.81641 0.13672-2.9805 0.13672-3.6211 0-1.7656-0.37891-4.332-2.1133-5.9102-4-0.20703-0.25-0.78125-1.0312-1.2773-1.7383-0.56641-0.8125-0.95703-1.3242-1.0586-1.3867-0.34766-0.20703-0.875-0.078126-1.0508 0.26172-0.11328 0.22266-0.097656 0.56641 0.03125 0.78516 0.25 0.41016 1.7461 2.5195 2.0586 2.9023 1.4375 1.7344 3.6094 3.4023 5.5039 4.207 1.1445 0.48828 2.0586 0.62891 3.8594 0.58203 1.5508-0.035157 2.4414-0.19141 4.0039-0.69141 2.4023-0.76953 4.0195-1.7031 6-3.4648 0.69141-0.60938 3.7852-3.7188 3.875-3.8945 0.09375-0.17578 0.089843-0.52734-0.015626-0.72266-0.17578-0.34375-0.63672-0.47266-1.0117-0.28516z"/></g></svg>